KRSPY-parametric_NarrowThinMinGrade.ufo
<glyph name="comma" format="2">
  <advance width="153.96696696696696"/>
  <unicode hex="002C"/>
  <outline>
    <contour>
      <point x="122.0" y="-147.5095095095095" type="line"/>
      <point x="122.0" y="0.0" type="line"/>
      <point x="122.0" y="4.0" type="line"/>
      <point x="120.0" y="4.0" type="line"/>
      <point x="120.0" y="0.03803803803803804" type="line"/>
      <point x="120.0" y="0.0" type="line"/>
      <point x="120.0" y="0.0" type="line"/>
      <point x="120.0" y="-147.5095095095095" type="line"/>
    </contour>
  </outline>
</glyph>
<glyph name="period" format="2">
  <advance width="64.04304304304304"/>
  <unicode hex="002E"/>
  <outline>
    <contour>
      <point x="32.07607607607608" y="0.0" type="line" identifier="1m237t4hyw"/>
      <point x="32.07607607607608" y="3.038038038038038" type="line" identifier="v7N4yg5XNk"/>
      <point x="32.07607607607608" y="6.076076076076076" type="line"/>
      <point x="26.0" y="6.076076076076076" type="line" identifier="zfocDyDTCM"/>
      <point x="26.0" y="3.038038038038038" type="line"/>
      <point x="26.0" y="0.0" type="line" identifier="S4rO5KuHiL"/>
    </contour>
  </outline>
</glyph>
<glyph name="three" format="2">
  <advance width="199.07407407407408"/>
  <unicode hex="0033"/>
  <outline>
    <contour>
      <point x="18.293293293293292" y="0.0" type="line" identifier="O9abUc1nmN"/>
      <point x="181.76176176176176" y="0.0" type="line" identifier="kMJYMTfXCq"/>
      <point x="181.76176176176176" y="809.8288288288288" type="line" identifier="su2XmdS8e8"/>
      <point x="129.33033033033033" y="809.8288288288288" type="line" identifier="JQaOzDQqlF"/>
      <point x="129.33033033033033" y="812.7907907907908" type="line"/>
      <point x="173.76176176176176" y="903.3363363363363" type="line" identifier="S91TzLL02W"/>
      <point x="173.76176176176176" y="1600.0" type="line" identifier="xg8x2Ki40p"/>
      <point x="20.293293293293292" y="1600.0" type="line" identifier="pE1XSRiy68"/>
      <point x="20.293293293293292" y="1434.176176176176" type="line" identifier="5lNstGRcSF"/>
      <point x="22.293293293293292" y="1434.176176176176" type="line" identifier="AcE5xKDZfE"/>
      <point x="22.293293293293292" y="1598.0" type="line" identifier="7ogBYufWpl"/>
      <point x="171.76176176176176" y="1598.0" type="line" identifier="RHLvSX2Jv6"/>
      <point x="171.76176176176176" y="903.3553553553553" type="line" identifier="YUjTrmoWd9"/>
      <point x="127.33033033033033" y="812.8098098098098" type="line"/>
      <point x="127.33033033033033" y="809.8288288288288" type="line" identifier="iic1IBkDqp"/>
      <point x="42.98698698698699" y="809.8288288288288" type="line" identifier="lRLJEhXMlO"/>
      <point x="42.98698698698699" y="807.8288288288288" type="line" identifier="8aKgEELrVU"/>
      <point x="179.76176176176176" y="807.8288288288288" type="line" identifier="Dm8zjmbhNr"/>
      <point x="179.76176176176176" y="2.0" type="line" identifier="xv9CFHiFgB"/>
      <point x="20.274274274274273" y="2.0" type="line" identifier="YajKQV3MHP"/>
      <point x="20.274274274274273" y="111.86986986986987" type="line" identifier="36SchVkwze"/>
      <point x="18.293293293293292" y="111.86986986986987" type="line" identifier="tVui9PiOjA"/>
    </contour>
  </outline>
</glyph>
<glyph name="four" format="2">
  <advance width="186.60660660660662"/>
  <unicode hex="0034"/>
  <outline>
    <contour>
      <point x="144.42042042042044" y="0.0" type="line"/>
      <point x="146.42042042042044" y="0.0" type="line"/>
      <point x="146.42042042042044" y="811.7527527527527" type="line"/>
      <point x="183.00900900900902" y="811.7527527527527" type="line"/>
      <point x="183.00900900900902" y="813.7527527527527" type="line"/>
      <point x="146.42042042042044" y="813.7527527527527" type="line"/>
      <point x="146.42042042042044" y="1600.0" type="line"/>
      <point x="144.42042042042044" y="1600.0" type="line"/>
      <point x="144.42042042042044" y="813.7527527527527" type="line"/>
      <point x="7.55955955955956" y="813.7527527527527" type="line"/>
      <point x="7.55955955955956" y="899.3173173173174" type="line"/>
      <point x="53.4034034034034" y="1680.0" type="line"/>
      <point x="52.36536536536536" y="1680.0" type="line"/>
      <point x="5.55955955955956" y="898.3363363363363" type="line"/>
      <point x="5.55955955955956" y="811.7527527527527" type="line"/>
      <point x="144.42042042042044" y="811.7527527527527" type="line"/>
    </contour>
  </outline>
</glyph>
<glyph name="six" format="2">
  <advance width="193.18818818818818"/>
  <unicode hex="0036"/>
  <outline>
    <contour>
      <point x="14.36936936936937" y="0.0" type="line" identifier="uiw6aBUf4P"/>
      <point x="177.83783783783784" y="0.0" type="line" identifier="jtYkxiUX6G"/>
      <point x="177.83783783783784" y="801.0" type="line" identifier="2G5L37c87I"/>
      <point x="16.36936936936937" y="801.0" type="line"/>
      <point x="16.36936936936937" y="1435.3483483483483" type="line"/>
      <point x="62.17517517517518" y="1598.0" type="line"/>
      <point x="175.83783783783784" y="1598.0" type="line"/>
      <point x="175.83783783783784" y="1364.5265265265266" type="line"/>
      <point x="177.81881881881884" y="1364.5265265265266" type="line" identifier="Wuidbv6mUe"/>
      <point x="177.81881881881884" y="1600.0" type="line" identifier="oGvEEuxnYv"/>
      <point x="60.194194194194196" y="1600.0" type="line" identifier="xR3pEHbMJx"/>
      <point x="14.36936936936937" y="1436.3483483483483" type="line" identifier="KnMArb0tv8"/>
    </contour>
    <contour>
      <point x="175.83783783783784" y="799.0" type="line"/>
      <point x="175.83783783783784" y="2.0" type="line"/>
      <point x="16.36936936936937" y="2.0" type="line"/>
      <point x="16.36936936936937" y="799.0" type="line"/>
    </contour>
  </outline>
</glyph>
<glyph name="seven" format="2">
  <advance width="194.15015015015015"/>
  <unicode hex="0037"/>
  <outline>
    <contour>
      <point x="97.62262262262263" y="0.0" type="line"/>
      <point x="99.62262262262263" y="0.0" type="line" identifier="PiPrv7Kcoy"/>
      <point x="176.83783783783784" y="1487.3483483483483" type="line" identifier="PkvwNC9Tx1"/>
      <point x="176.83783783783784" y="1600.0" type="line" identifier="tgqM27bPOm"/>
      <point x="13.388388388388389" y="1600.0" type="line" identifier="36ml4xRICt"/>
      <point x="13.388388388388389" y="1364.5265265265266" type="line" identifier="aaDZsh5Mah"/>
      <point x="15.36936936936937" y="1364.5265265265266" type="line"/>
      <point x="15.36936936936937" y="1598.0" type="line"/>
      <point x="174.83783783783784" y="1598.0" type="line"/>
      <point x="174.83783783783784" y="1492.2722722722722" type="line"/>
    </contour>
  </outline>
</glyph>
<glyph name="eight" format="2">
  <advance width="230.71271271271272"/>
  <unicode hex="0038"/>
  <outline>
    <contour>
      <point x="159.01001001001" y="799.0" type="line"/>
      <point x="201.57157157157158" y="748.4354354354355" type="line"/>
      <point x="201.57157157157158" y="2.0" type="line"/>
      <point x="29.14114114114114" y="2.0" type="line"/>
      <point x="29.14114114114114" y="748.4354354354355" type="line"/>
      <point x="71.72172172172172" y="799.0" type="line"/>
    </contour>
    <contour>
      <point x="161.02902902902903" y="799.0" type="line"/>
      <point x="161.02902902902903" y="801.0" type="line"/>
      <point x="200.59059059059058" y="847.3363363363363" type="line"/>
      <point x="200.59059059059058" y="1600.0" type="line"/>
      <point x="30.14114114114114" y="1600.0" type="line"/>
      <point x="30.14114114114114" y="847.3363363363363" type="line"/>
      <point x="69.68368368368368" y="801.0" type="line"/>
      <point x="69.68368368368368" y="799.0" type="line"/>
      <point x="27.14114114114114" y="749.4354354354355" type="line"/>
      <point x="27.14114114114114" y="0.0" type="line"/>
      <point x="203.59059059059058" y="0.0" type="line"/>
      <point x="203.59059059059058" y="749.4354354354355" type="line"/>
    </contour>
    <contour>
      <point x="71.72172172172172" y="801.0" type="line"/>
      <point x="32.14114114114114" y="848.3363363363363" type="line"/>
      <point x="32.14114114114114" y="1598.0" type="line"/>
      <point x="198.57157157157158" y="1598.0" type="line"/>
      <point x="198.57157157157158" y="848.3363363363363" type="line"/>
      <point x="159.01001001001" y="801.0" type="line"/>
    </contour>
  </outline>
</glyph>
<glyph name="nine" format="2">
  <advance width="193.18818818818818"/>
  <unicode hex="0039"/>
  <outline>
    <contour>
      <point x="178.81881881881884" y="1600.0" type="line" identifier="uiw6aBUf4P"/>
      <point x="15.33133133133133" y="1600.0" type="line" identifier="jtYkxiUX6G"/>
      <point x="15.33133133133133" y="799.0" type="line" identifier="2G5L37c87I"/>
      <point x="176.81881881881884" y="799.0" type="line"/>
      <point x="176.81881881881884" y="2.0" type="line"/>
      <point x="17.35035035035035" y="2.0" type="line"/>
      <point x="17.35035035035035" y="235.47347347347346" type="line"/>
      <point x="15.36936936936937" y="235.47347347347346" type="line" identifier="Wuidbv6mUe"/>
      <point x="15.36936936936937" y="0.0" type="line" identifier="oGvEEuxnYv"/>
      <point x="178.81881881881884" y="0.0" type="line" identifier="xR3pEHbMJx"/>
    </contour>
    <contour>
      <point x="17.33133133133133" y="801.0" type="line"/>
      <point x="17.33133133133133" y="1598.0" type="line"/>
      <point x="176.81881881881884" y="1598.0" type="line"/>
      <point x="176.81881881881884" y="801.0" type="line"/>
    </contour>
  </outline>
</glyph>
<glyph name="B" format="2">
  <advance width="259"/>
  <unicode hex="0042"/>
  <outline>
    <contour>
      <point x="50" y="0" type="line" identifier="hvY9r8RmLr"/>
      <point x="214" y="0" type="line" identifier="9QFpw7nfq7"/>
      <point x="214" y="757" type="line" identifier="543PerILpr"/>
      <point x="174" y="799" type="line" identifier="zhomauHW30"/>
      <point x="174" y="801" type="line" identifier="870ZhtaozS"/>
      <point x="210" y="847" type="line" identifier="eGKH52Jgnk"/>
      <point x="210" y="1600" type="line" identifier="FaP204GrdB"/>
      <point x="50" y="1600" type="line" identifier="JEev70GAj6"/>
    </contour>
    <contour>
      <point x="52" y="801" type="line" identifier="By7dfMihfe"/>
      <point x="52" y="1598" type="line" identifier="1p5hKrurVy"/>
      <point x="208" y="1598" type="line" identifier="Qby8aMtF2X"/>
      <point x="208" y="848" type="line" identifier="9lW01gQyU2"/>
      <point x="172" y="801" type="line" identifier="xpxyvIzPoc"/>
    </contour>
    <contour>
      <point x="52" y="2" type="line" identifier="jaMSiLrCua"/>
      <point x="52" y="799" type="line" identifier="XSrxNd2axx"/>
      <point x="172" y="799" type="line" identifier="VyYlzRh5nq"/>
      <point x="212" y="756" type="line" identifier="lsRGatjQja"/>
      <point x="212" y="2" type="line" identifier="xhlDJ3CjD5"/>
    </contour>
  </outline>
</glyph>
<glyph name="C" format="2">
  <advance width="219.8028028028028"/>
  <unicode hex="0043"/>
  <outline>
    <contour>
      <point x="31.966966966966968" y="0.0" type="line" identifier="7lPhzTnk2Z"/>
      <point x="191.6996996996997" y="0.0" type="line" identifier="qJVLZGnkwh"/>
      <point x="191.6996996996997" y="325.92392392392395" type="line" identifier="nDnDHzAMXL"/>
      <point x="189.6996996996997" y="325.92392392392395" type="line" identifier="QX1V08aTu0"/>
      <point x="189.6996996996997" y="2.0" type="line" identifier="Y750RHTvDj"/>
      <point x="33.947947947947945" y="2.0" type="line" identifier="L2LsGnXiZ2"/>
      <point x="33.947947947947945" y="1292.3483483483483" type="line" identifier="sUWsr03vF4"/>
      <point x="86.77277277277277" y="1598.0" type="line" identifier="dbOUe6OhxL"/>
      <point x="188.64264264264264" y="1598.0" type="line" identifier="5BjRbcud80"/>
      <point x="188.64264264264264" y="1090.6226226226227" type="line" identifier="fNVDqwQo2o"/>
      <point x="190.64264264264264" y="1090.6226226226227" type="line" identifier="wLqQQx7QVN"/>
      <point x="190.64264264264264" y="1600.0" type="line" identifier="9eJelv8BOw"/>
      <point x="84.7917917917918" y="1600.0" type="line" identifier="lfZev3ICaC"/>
      <point x="31.966966966966968" y="1293.3483483483483" type="line" identifier="V1EWIdPahq"/>
    </contour>
  </outline>
</glyph>
<glyph name="E" format="2">
  <advance width="223.47047047047047"/>
  <unicode hex="0045"/>
  <outline>
    <contour>
      <point x="37.91791791791792" y="0.0" type="line" identifier="fZynkQ4XHB"/>
      <point x="195.36736736736736" y="0.0" type="line" identifier="FAQNpgUPxV"/>
      <point x="195.36736736736736" y="343.14114114114113" type="line" identifier="gHI0YjrPxR"/>
      <point x="193.36736736736736" y="343.14114114114113" type="line" identifier="gxCIuXb4el"/>
      <point x="193.36736736736736" y="2.0" type="line" identifier="5cgTYOhATF"/>
      <point x="39.91791791791792" y="2.0" type="line" identifier="bWs42DaCgU"/>
      <point x="39.91791791791792" y="799.0" type="line" identifier="VtD2aADJmn"/>
      <point x="186.6176176176176" y="799.0" type="line" identifier="PpbsFdHAnS"/>
      <point x="186.6176176176176" y="801.0" type="line" identifier="8WuC5p8Ax5"/>
      <point x="39.91791791791792" y="801.0" type="line" identifier="m39IWn9ntA"/>
      <point x="39.91791791791792" y="1598.0" type="line" identifier="gQ21I4SHQg"/>
      <point x="192.36736736736736" y="1598.0" type="line" identifier="eqNb2VTwYs"/>
      <point x="192.36736736736736" y="1158.820820820821" type="line" identifier="mLmcFoJA4m"/>
      <point x="194.36736736736736" y="1158.820820820821" type="line" identifier="e79n7CoPy1"/>
      <point x="194.36736736736736" y="1600.0" type="line" identifier="qYRmo14Il5"/>
      <point x="37.91791791791792" y="1600.0" type="line" identifier="HmJIcnLWfC"/>
    </contour>
  </outline>
</glyph>
<glyph name="J" format="2">
  <advance width="222.64264264264264"/>
  <unicode hex="004A"/>
  <outline>
    <contour>
      <point x="70.74674674674675" y="0.0" type="line" identifier="jiO9eX9U07"/>
      <point x="184.72472472472472" y="0.0" type="line" identifier="wgpFs1yguc"/>
      <point x="184.72472472472472" y="1600.0" type="line" identifier="d5Di3vNzni"/>
      <point x="30.103103103103102" y="1600.0" type="line" identifier="TbrXnCyMEi"/>
      <point x="30.103103103103102" y="1598.0" type="line" identifier="AdYfGKx8QJ"/>
      <point x="182.72472472472472" y="1598.0" type="line" identifier="46RrD1WET2"/>
      <point x="182.72472472472472" y="2.0" type="line" identifier="zFXsE8BUYG"/>
      <point x="72.74674674674675" y="2.0" type="line" identifier="NQmE31PUns"/>
      <point x="30.084084084084083" y="348.28228228228227" type="line" identifier="qiXxY6YhCq"/>
      <point x="28.103103103103102" y="348.28228228228227" type="line" identifier="7exNZv1XSc"/>
    </contour>
  </outline>
</glyph>
<glyph name="M" format="2">
  <advance width="399"/>
  <unicode hex="004D"/>
  <outline>
    <contour>
      <point x="185" y="276" type="line" identifier="0Dn4Xpf57M"/>
      <point x="107" y="1598" type="line"/>
      <point x="86" y="1598" type="line"/>
      <point x="86" y="0" type="line"/>
      <point x="84" y="0" type="line"/>
      <point x="84" y="1600" type="line"/>
      <point x="110" y="1600" type="line"/>
      <point x="188" y="278" type="line"/>
      <point x="210" y="278" type="line" identifier="9aKZPM0HPh"/>
      <point x="289" y="1600" type="line"/>
      <point x="314" y="1600" type="line"/>
      <point x="314" y="0" type="line"/>
      <point x="312" y="0" type="line"/>
      <point x="312" y="1598" type="line"/>
      <point x="291" y="1598" type="line"/>
      <point x="213" y="276" type="line" identifier="spdoeeCFft"/>
    </contour>
  </outline>
</glyph>
<glyph name="O" format="2">
  <advance width="231.90490490490492"/>
  <unicode hex="004F"/>
  <outline>
    <contour>
      <point x="199.93793793793793" y="161.31431431431432" type="line" identifier="ob8US3C311"/>
      <point x="199.93793793793793" y="1600.0" type="line" identifier="c9brEFyXXA"/>
      <point x="74.77277277277277" y="1600.0" type="line" identifier="a4Ql951bxG"/>
      <point x="31.966966966966968" y="1431.6666666666667" type="line" identifier="kbL68Qh2zr"/>
      <point x="31.966966966966968" y="0.0" type="line" identifier="U6WibAQAUl"/>
      <point x="158.13213213213214" y="0.0" type="line" identifier="dfgNHTgBfR"/>
    </contour>
    <contour>
      <point x="197.93793793793793" y="161.33333333333334" type="line" identifier="SnrsQD5TLy"/>
      <point x="156.15115115115117" y="2.0" type="line" identifier="jjd5iRDXWT"/>
      <point x="33.966966966966964" y="2.0" type="line" identifier="YbQKHpAtYn"/>
      <point x="33.966966966966964" y="1430.6666666666667" type="line" identifier="vdfGLkskOQ"/>
      <point x="76.75375375375376" y="1598.0" type="line" identifier="qXlVxK5ShE"/>
      <point x="197.93793793793793" y="1598.0" type="line" identifier="g70r2r6DwY"/>
    </contour>
  </outline>
</glyph>
<glyph name="Q" format="2">
  <advance width="235.8938938938939"/>
  <unicode hex="0051"/>
  <outline>
    <contour>
      <point x="197.97597597597598" y="1600.0" type="line" identifier="c9brEFyXXA"/>
      <point x="72.8108108108108" y="1600.0" type="line" identifier="a4Ql951bxG"/>
      <point x="30.005005005005007" y="1296.03003003003" type="line" identifier="kbL68Qh2zr"/>
      <point x="30.005005005005007" y="0.0" type="line" identifier="U6WibAQAUl"/>
      <point x="197.97597597597598" y="0.0" type="line" identifier="dfgNHTgBfR"/>
    </contour>
    <contour>
      <point x="195.97597597597598" y="2.0" type="line" identifier="jjd5iRDXWT"/>
      <point x="32.005005005005" y="2.0" type="line" identifier="YbQKHpAtYn"/>
      <point x="32.005005005005" y="1297.011011011011" type="line" identifier="vdfGLkskOQ"/>
      <point x="74.8108108108108" y="1598.0" type="line" identifier="qXlVxK5ShE"/>
      <point x="195.97597597597598" y="1598.0" type="line" identifier="g70r2r6DwY"/>
    </contour>
    <contour>
      <point x="114.03803803803804" y="-149.25525525525526" type="line"/>
      <point x="116.03803803803804" y="-149.25525525525526" type="line"/>
      <point x="116.03803803803804" y="2.0" type="line"/>
      <point x="114.03803803803804" y="2.0" type="line"/>
    </contour>
  </outline>
</glyph>
<glyph name="R" format="2">
  <advance width="236.87487487487488"/>
  <unicode hex="0052"/>
  <outline>
    <contour>
      <point x="39.91791791791792" y="801.0" type="line"/>
      <point x="39.91791791791792" y="1598.0" type="line"/>
      <point x="198.92692692692694" y="1598.0" type="line"/>
      <point x="198.92692692692694" y="848.3363363363363" type="line"/>
      <point x="161.53653653653654" y="801.0" type="line"/>
    </contour>
    <contour>
      <point x="204.9079079079079" y="0.0" type="line"/>
      <point x="204.9079079079079" y="757.4354354354355" type="line"/>
      <point x="164.53653653653654" y="799.0" type="line"/>
      <point x="164.53653653653654" y="801.0" type="line"/>
      <point x="200.92692692692694" y="847.3363363363363" type="line"/>
      <point x="200.92692692692694" y="1600.0" type="line"/>
      <point x="37.91791791791792" y="1600.0" type="line"/>
      <point x="37.91791791791792" y="0.0" type="line"/>
      <point x="39.91791791791792" y="0.0" type="line"/>
      <point x="39.91791791791792" y="799.0" type="line"/>
      <point x="161.53653653653654" y="799.0" type="line"/>
      <point x="202.9079079079079" y="756.4354354354355" type="line"/>
      <point x="202.9079079079079" y="0.0" type="line"/>
    </contour>
  </outline>
</glyph>
<glyph name="S" format="2">
  <advance width="212.77277277277278"/>
  <unicode hex="0053"/>
  <outline>
    <contour>
      <point x="30.103103103103102" y="0.0" type="line" identifier="09VlJ0BjUX"/>
      <point x="184.66966966966967" y="0.0" type="line" identifier="EagWihqFM8"/>
      <point x="184.66966966966967" y="801.0" type="line" identifier="KfNuQA7eZe"/>
      <point x="30.103103103103102" y="801.0" type="line" identifier="At364YZFEy"/>
      <point x="30.103103103103102" y="1291.1961961961963" type="line"/>
      <point x="77.71071071071071" y="1598.0" type="line"/>
      <point x="182.66966966966967" y="1598.0" type="line" identifier="3ZUkG35meB"/>
      <point x="182.66966966966967" y="1258.098098098098" type="line" identifier="DTOJhFIl15"/>
      <point x="184.66966966966967" y="1258.098098098098" type="line" identifier="9KDcrfQ5Ui"/>
      <point x="184.66966966966967" y="1600.0" type="line" identifier="SaF9ojRFrW"/>
      <point x="75.71071071071071" y="1600.0" type="line"/>
      <point x="28.103103103103102" y="1291.1961961961963" type="line"/>
      <point x="28.103103103103102" y="799.0" type="line" identifier="3sQ8t8BZ6b"/>
      <point x="182.66966966966967" y="799.0" type="line" identifier="yiV6OCBLHg"/>
      <point x="182.66966966966967" y="2.0" type="line" identifier="9kdl9SYsn8"/>
      <point x="32.08408408408408" y="2.0" type="line" identifier="yZDWuX8LLe"/>
      <point x="32.08408408408408" y="247.56456456456456" type="line" identifier="jYb9001DTm"/>
      <point x="30.103103103103102" y="247.56456456456456" type="line" identifier="ho4DrS0rdW"/>
    </contour>
  </outline>
</glyph>
<glyph name="U" format="2">
  <advance width="234.33433433433436"/>
  <unicode hex="0055"/>
  <outline>
    <contour>
      <point x="194.41641641641644" y="1600.0" type="line" smooth="yes"/>
      <point x="194.41641641641644" y="2.0" type="line"/>
      <point x="86.7917917917918" y="2.0" type="line" smooth="yes"/>
      <point x="33.966966966966964" y="309.6706706706707" type="line" smooth="yes"/>
      <point x="33.966966966966964" y="1600.0" type="line"/>
      <point x="31.966966966966968" y="1600.0" type="line" smooth="yes"/>
      <point x="31.966966966966968" y="309.65165165165166" type="line" smooth="yes"/>
      <point x="84.7917917917918" y="0.0" type="line" smooth="yes"/>
      <point x="196.41641641641644" y="0.0" type="line" smooth="yes"/>
      <point x="196.41641641641644" y="1600.0" type="line" smooth="yes"/>
    </contour>
  </outline>
</glyph>
<glyph name="W" format="2">
  <advance width="344.3293293293293"/>
  <unicode hex="0057"/>
  <outline>
    <contour>
      <point x="39.91791791791792" y="1600.0" type="line" smooth="yes" identifier="12Pyby1xY2"/>
      <point x="37.91791791791792" y="1600.0" type="line" smooth="yes" identifier="5LJg4ajoG6"/>
      <point x="37.91791791791792" y="0.0" type="line" smooth="yes" identifier="ZqTZqAY3uY"/>
      <point x="128.92592592592592" y="0.0" type="line" smooth="yes" identifier="rCeQLyjlsN"/>
      <point x="174.12112112112112" y="265.62762762762765" type="line"/>
      <point x="174.14014014014015" y="265.62762762762765" type="line"/>
      <point x="177.33533533533534" y="0.0" type="line" smooth="yes" identifier="Pkl7cZ37MU"/>
      <point x="259.53753753753756" y="0.0" type="line" smooth="yes" identifier="R4lklfJsHA"/>
      <point x="312.3623623623624" y="309.65165165165166" type="line" smooth="yes" identifier="7g7f8Wu7K4"/>
      <point x="312.3623623623624" y="1600.0" type="line" smooth="yes" identifier="RTOJW56qXy"/>
      <point x="310.3623623623624" y="1600.0" type="line" identifier="JfSFAkWGZC"/>
      <point x="310.3623623623624" y="310.63263263263264" type="line" smooth="yes" identifier="WWvGwSpq0g"/>
      <point x="257.53753753753756" y="2.0" type="line" smooth="yes" identifier="oee4nqI8Wl"/>
      <point x="179.33533533533534" y="2.0" type="line" identifier="Ljn2lpvpG8"/>
      <point x="176.14014014014015" y="265.62762762762765" type="line"/>
      <point x="176.14014014014015" y="1594.2942942942943" type="line" smooth="yes"/>
      <point x="174.14014014014015" y="1594.2942942942943" type="line"/>
      <point x="174.14014014014015" y="268.6466466466467" type="line"/>
      <point x="173.15915915915917" y="268.6466466466467" type="line"/>
      <point x="126.94494494494495" y="2.0" type="line" identifier="GlWB6PG54Z"/>
      <point x="39.91791791791792" y="2.0" type="line" identifier="iqeTRv7HXg"/>
    </contour>
  </outline>
</glyph>
<glyph name="X" format="2">
  <advance width="240"/>
  <unicode hex="0058"/>
  <outline>
    <contour>
      <point x="164" y="799" type="line"/>
      <point x="206" y="748" type="line"/>
      <point x="206" y="0" type="line"/>
      <point x="208" y="0" type="line"/>
      <point x="208" y="749" type="line"/>
      <point x="166" y="799" type="line"/>
      <point x="166" y="801" type="line"/>
      <point x="204" y="847" type="line"/>
      <point x="204" y="1600" type="line"/>
      <point x="202" y="1600" type="line"/>
      <point x="202" y="848" type="line"/>
      <point x="164" y="801" type="line"/>
      <point x="77" y="801" type="line"/>
      <point x="38" y="848" type="line"/>
      <point x="38" y="1600" type="line"/>
      <point x="36" y="1600" type="line"/>
      <point x="36" y="847" type="line"/>
      <point x="75" y="801" type="line"/>
      <point x="75" y="799" type="line"/>
      <point x="32" y="749" type="line"/>
      <point x="32" y="0" type="line"/>
      <point x="34" y="0" type="line"/>
      <point x="34" y="748" type="line"/>
      <point x="77" y="799" type="line"/>
    </contour>
  </outline>
</glyph>
<glyph name="Y" format="2">
  <advance width="218.6746746746747"/>
  <unicode hex="0059"/>
  <outline>
    <contour>
      <point x="108.35635635635636" y="-0.03803803803803804" type="line" identifier="XKjckKJ7m9"/>
      <point x="110.35635635635636" y="0.0" type="line" identifier="WihjL321cU"/>
      <point x="110.35635635635636" y="771.3263263263264" type="line" identifier="rvzWMWl6O1"/>
      <point x="190.57157157157158" y="819.3963963963964" type="line" identifier="YbKEFhFR3q"/>
      <point x="190.57157157157158" y="1600.6086086086086" type="line" identifier="wnC8PudY2b"/>
      <point x="188.57157157157158" y="1600.6086086086086" type="line" identifier="spI4xe8t4f"/>
      <point x="188.57157157157158" y="820.3963963963964" type="line" identifier="Jw55i2s2Mm"/>
      <point x="110.35635635635636" y="773.3263263263264" type="line" identifier="9ncbEH2hEb"/>
      <point x="108.35635635635636" y="773.3263263263264" type="line" identifier="u7HFbTQwMo"/>
      <point x="30.103103103103102" y="820.3963963963964" type="line" identifier="oy8ifCCtGL"/>
      <point x="30.103103103103102" y="1600.6086086086086" type="line" identifier="ah5yat5gKV"/>
      <point x="28.103103103103102" y="1600.6086086086086" type="line" identifier="fJXhpKV79E"/>
      <point x="28.103103103103102" y="819.3963963963964" type="line" identifier="k3vH9oxqcN"/>
      <point x="108.35635635635636" y="771.3263263263264" type="line" identifier="3Kveia3O9h"/>
    </contour>
  </outline>
</glyph>
<glyph name="Z" format="2">
  <advance width="220.69369369369372"/>
  <unicode hex="005A"/>
  <outline>
    <contour>
      <point x="28.103103103103102" y="0.0" type="line"/>
      <point x="192.59059059059058" y="0.0" type="line" identifier="pzdvPTirLJ"/>
      <point x="192.59059059059058" y="244.2822822822823" type="line" identifier="91SxUS0iwG"/>
      <point x="190.59059059059058" y="244.2822822822823" type="line"/>
      <point x="190.59059059059058" y="2.0" type="line"/>
      <point x="30.103103103103102" y="2.0" type="line"/>
      <point x="30.103103103103102" y="234.6896896896897" type="line"/>
      <point x="188.55255255255256" y="1576.3483483483483" type="line" identifier="yyb1NCCI5w"/>
      <point x="188.55255255255256" y="1600.0" type="line" identifier="5FogYRSgkk"/>
      <point x="31.103103103103102" y="1600.0" type="line" identifier="svlFvrau4c"/>
      <point x="31.103103103103102" y="1357.7177177177177" type="line" identifier="LQ9fBsTy9K"/>
      <point x="33.1031031031031" y="1357.7177177177177" type="line"/>
      <point x="33.1031031031031" y="1598.0" type="line"/>
      <point x="186.55255255255256" y="1598.0" type="line"/>
      <point x="186.55255255255256" y="1576.3673673673675" type="line"/>
      <point x="28.103103103103102" y="237.65165165165166" type="line" identifier="teVKnpBcVb"/>
    </contour>
  </outline>
</glyph>
<glyph name="C.wide" format="2">
  <advance width="215.65065065065068"/>
  <outline>
    <contour>
      <point x="26.14114114114114" y="0.0" type="line" identifier="7lPhzTnk2Z"/>
      <point x="187.54754754754754" y="0.0" type="line" identifier="qJVLZGnkwh"/>
      <point x="187.54754754754754" y="2.0" type="line" identifier="Y750RHTvDj"/>
      <point x="28.12212212212212" y="2.0" type="line" identifier="L2LsGnXiZ2"/>
      <point x="28.12212212212212" y="1292.3483483483483" type="line" identifier="sUWsr03vF4"/>
      <point x="80.94694694694695" y="1598.0" type="line" identifier="dbOUe6OhxL"/>
      <point x="186.54754754754754" y="1598.0" type="line" identifier="5BjRbcud80"/>
      <point x="186.54754754754754" y="1600.0" type="line" identifier="9eJelv8BOw"/>
      <point x="78.96596596596596" y="1600.0" type="line" identifier="lfZev3ICaC"/>
      <point x="26.14114114114114" y="1293.3483483483483" type="line" identifier="V1EWIdPahq"/>
    </contour>
  </outline>
</glyph>
<glyph name="E.wide" format="2">
  <advance width="198.8858858858859"/>
  <outline>
    <contour>
      <point x="37.91791791791792" y="0.0" type="line" identifier="fZynkQ4XHB"/>
      <point x="170.7827827827828" y="0.0" type="line" identifier="FAQNpgUPxV"/>
      <point x="170.7827827827828" y="2.0" type="line" identifier="5cgTYOhATF"/>
      <point x="39.91791791791792" y="2.0" type="line" identifier="bWs42DaCgU"/>
      <point x="39.91791791791792" y="799.0" type="line" identifier="VtD2aADJmn"/>
      <point x="162.03303303303304" y="799.0" type="line" identifier="PpbsFdHAnS"/>
      <point x="162.03303303303304" y="801.0" type="line" identifier="8WuC5p8Ax5"/>
      <point x="39.91791791791792" y="801.0" type="line" identifier="m39IWn9ntA"/>
      <point x="39.91791791791792" y="1598.0" type="line" identifier="gQ21I4SHQg"/>
      <point x="169.7827827827828" y="1598.0" type="line" identifier="eqNb2VTwYs"/>
      <point x="169.7827827827828" y="1600.0" type="line" identifier="qYRmo14Il5"/>
      <point x="37.91791791791792" y="1600.0" type="line" identifier="HmJIcnLWfC"/>
    </contour>
  </outline>
</glyph>
<glyph name="F.wide" format="2">
  <advance width="205.79379379379378"/>
  <outline>
    <contour>
      <point x="37.91791791791792" y="0.0" type="line" identifier="oAgH2tA6DJ"/>
      <point x="39.91791791791792" y="0.0" type="line" identifier="zCZyMcW5ho"/>
      <point x="39.91791791791792" y="799.0" type="line" identifier="yHYqkMd7LI"/>
      <point x="172.12612612612614" y="799.0" type="line" identifier="NmB7yyQuio"/>
      <point x="172.12612612612614" y="801.0" type="line" identifier="wQk2C8zPHh"/>
      <point x="39.91791791791792" y="801.0" type="line" identifier="4cFHKQfHDt"/>
      <point x="39.91791791791792" y="1598.0" type="line" identifier="ZvzwyrcwpS"/>
      <point x="177.6906906906907" y="1598.0" type="line" identifier="4E754ovOIe"/>
      <point x="177.6906906906907" y="1600.0" type="line" identifier="NUrIjqOB7J"/>
      <point x="37.91791791791792" y="1600.0" type="line" identifier="TBAYuCfUFX"/>
    </contour>
  </outline>
</glyph>
<glyph name="G.wide" format="2">
  <advance width="212.74774774774775"/>
  <outline>
    <contour>
      <point x="31.966966966966968" y="0.0" type="line" identifier="7lPhzTnk2Z"/>
      <point x="196.41641641641644" y="0.0" type="line" identifier="qJVLZGnkwh"/>
      <point x="196.41641641641644" y="801.0" type="line" identifier="uek1NNj7De"/>
      <point x="117.46046046046047" y="801.0" type="line" identifier="qcvimxjndX"/>
      <point x="117.46046046046047" y="799.0" type="line" identifier="EARaY3Su65"/>
      <point x="194.41641641641644" y="799.0" type="line" identifier="4m6dHLVhZq"/>
      <point x="194.41641641641644" y="2.0" type="line" identifier="Y750RHTvDj"/>
      <point x="33.966966966966964" y="2.0" type="line" identifier="L2LsGnXiZ2"/>
      <point x="33.966966966966964" y="1292.3483483483483" type="line" identifier="sUWsr03vF4"/>
      <point x="86.7917917917918" y="1598.0" type="line" identifier="dbOUe6OhxL"/>
      <point x="195.41641641641644" y="1598.0" type="line" identifier="5BjRbcud80"/>
      <point x="195.41641641641644" y="1600.0" type="line" identifier="9eJelv8BOw"/>
      <point x="84.7917917917918" y="1600.0" type="line" identifier="lfZev3ICaC"/>
      <point x="31.966966966966968" y="1293.3483483483483" type="line" identifier="V1EWIdPahq"/>
    </contour>
  </outline>
</glyph>
<glyph name="L.wide" format="2">
  <advance width="208.71871871871872"/>
  <outline>
    <contour>
      <point x="34.97497497497498" y="0.0" type="line" identifier="XkJNfQlnnt"/>
      <point x="182.57757757757759" y="0.0" type="line" identifier="82EXZEgt46"/>
      <point x="182.57757757757759" y="2.0" type="line" identifier="cqpSxwFiM3"/>
      <point x="36.97497497497498" y="2.0" type="line" identifier="MbxRZRd8vz"/>
      <point x="36.97497497497498" y="1600.0" type="line" identifier="lYiaKSKITt"/>
      <point x="34.97497497497498" y="1600.0" type="line" identifier="XFf4mMUzYo"/>
    </contour>
  </outline>
</glyph>
<glyph name="N.narrow" format="2">
  <advance width="215"/>
  <outline>
    <contour>
      <point x="38" y="0" type="line" smooth="yes"/>
      <point x="40" y="0" type="line"/>
      <point x="40" y="1527" type="line"/>
      <point x="75" y="1598" type="line"/>
      <point x="175" y="1598" type="line"/>
      <point x="175" y="0" type="line" smooth="yes"/>
      <point x="177" y="0" type="line" smooth="yes"/>
      <point x="177" y="1600" type="line" smooth="yes"/>
      <point x="73" y="1600" type="line" smooth="yes"/>
      <point x="41" y="1534" type="line"/>
      <point x="40" y="1534" type="line"/>
      <point x="40" y="1600" type="line"/>
      <point x="38" y="1600" type="line"/>
    </contour>
  </outline>
</glyph>
<glyph name="N.wide" format="2">
  <advance width="260"/>
  <outline>
    <contour>
      <point x="38" y="0" type="line" identifier="CkwYPPvJLv"/>
      <point x="40" y="0" type="line" identifier="oHTJsN7drZ"/>
      <point x="40" y="1598" type="line" identifier="wfBbYd10Pm"/>
      <point x="53" y="1598" type="line" identifier="MEnBDHq6zU"/>
      <point x="202" y="0" type="line" identifier="3Nbopwznvn"/>
      <point x="222" y="0" type="line" identifier="uKfuudIUvA"/>
      <point x="222" y="1600" type="line" identifier="XRdLFXiM4t"/>
      <point x="220" y="1600" type="line" identifier="MUSJPjCIXg"/>
      <point x="220" y="2" type="line" identifier="VILP20cFmq"/>
      <point x="204" y="2" type="line" identifier="z5b04GDwRN"/>
      <point x="55" y="1600" type="line" identifier="LL64NQ6WBE"/>
      <point x="38" y="1600" type="line" identifier="dzUaaP1sjt"/>
    </contour>
  </outline>
</glyph>
<glyph name="R.alt" format="2">
  <advance width="229.5035035035035"/>
  <outline>
    <contour>
      <point x="35.209209209209206" y="801.0" type="line"/>
      <point x="35.209209209209206" y="1598.0" type="line"/>
      <point x="194.21821821821823" y="1598.0" type="line"/>
      <point x="194.21821821821823" y="801.0" type="line"/>
    </contour>
    <contour>
      <point x="207.06606606606607" y="0.0" type="line"/>
      <point x="155.9039039039039" y="799.0" type="line"/>
      <point x="196.21821821821823" y="799.0" type="line"/>
      <point x="196.21821821821823" y="1600.0" type="line"/>
      <point x="33.209209209209206" y="1600.0" type="line"/>
      <point x="33.209209209209206" y="0.0" type="line"/>
      <point x="35.209209209209206" y="0.0" type="line"/>
      <point x="35.209209209209206" y="799.0" type="line"/>
      <point x="153.88488488488488" y="799.0" type="line"/>
      <point x="205.06606606606607" y="0.0" type="line"/>
    </contour>
  </outline>
</glyph>
<glyph name="S.alt" format="2">
  <advance width="200.49049049049052"/>
  <outline>
    <contour>
      <point x="20.923923923923923" y="0.0" type="line" identifier="09VlJ0BjUX"/>
      <point x="175.49049049049052" y="0.0" type="line" identifier="EagWihqFM8"/>
      <point x="175.49049049049052" y="801.0" type="line" identifier="KfNuQA7eZe"/>
      <point x="20.923923923923923" y="801.0" type="line" identifier="At364YZFEy"/>
      <point x="20.923923923923923" y="1293.098098098098" type="line"/>
      <point x="64.72772772772772" y="1598.0" type="line"/>
      <point x="173.49049049049052" y="1598.0" type="line" identifier="3ZUkG35meB"/>
      <point x="173.49049049049052" y="1261.901901901902" type="line" identifier="DTOJhFIl15"/>
      <point x="175.49049049049052" y="1261.901901901902" type="line" identifier="9KDcrfQ5Ui"/>
      <point x="175.49049049049052" y="1600.0" type="line" identifier="SaF9ojRFrW"/>
      <point x="62.727727727727725" y="1600.0" type="line"/>
      <point x="18.923923923923923" y="1293.098098098098" type="line"/>
      <point x="18.923923923923923" y="799.0" type="line" identifier="3sQ8t8BZ6b"/>
      <point x="173.49049049049052" y="799.0" type="line" identifier="yiV6OCBLHg"/>
      <point x="173.49049049049052" y="2.0" type="line" identifier="9kdl9SYsn8"/>
      <point x="22.904904904904903" y="2.0" type="line" identifier="yZDWuX8LLe"/>
      <point x="22.904904904904903" y="243.0" type="line" identifier="jYb9001DTm"/>
      <point x="20.923923923923923" y="243.0" type="line" identifier="ho4DrS0rdW"/>
    </contour>
  </outline>
</glyph>
<glyph name="S.wide" format="2">
  <advance width="216.63663663663664"/>
  <outline>
    <contour>
      <point x="33.966966966966964" y="0.0" type="line" identifier="09VlJ0BjUX"/>
      <point x="188.53353353353356" y="0.0" type="line" identifier="EagWihqFM8"/>
      <point x="188.53353353353356" y="801.0" type="line" identifier="KfNuQA7eZe"/>
      <point x="33.966966966966964" y="801.0" type="line" identifier="At364YZFEy"/>
      <point x="33.966966966966964" y="1293.098098098098" type="line"/>
      <point x="79.65365365365365" y="1598.0" type="line"/>
      <point x="188.53353353353356" y="1598.0" type="line" identifier="3ZUkG35meB"/>
      <point x="188.53353353353356" y="1600.0" type="line" identifier="SaF9ojRFrW"/>
      <point x="77.67267267267268" y="1600.0" type="line"/>
      <point x="31.966966966966968" y="1293.098098098098" type="line"/>
      <point x="31.966966966966968" y="799.0" type="line" identifier="3sQ8t8BZ6b"/>
      <point x="186.53353353353356" y="799.0" type="line" identifier="yiV6OCBLHg"/>
      <point x="186.53353353353356" y="2.0" type="line" identifier="9kdl9SYsn8"/>
      <point x="33.966966966966964" y="2.0" type="line" identifier="yZDWuX8LLe"/>
    </contour>
  </outline>
</glyph>
<glyph name="Z.wide" format="2">
  <advance width="249"/>
  <outline>
    <contour>
      <point x="42" y="0" type="line"/>
      <point x="207" y="0" type="line" identifier="pzdvPTirLJ"/>
      <point x="207" y="2" type="line"/>
      <point x="44" y="2" type="line"/>
      <point x="44" y="235" type="line"/>
      <point x="203" y="1478" type="line" identifier="yyb1NCCI5w"/>
      <point x="203" y="1600" type="line" identifier="5FogYRSgkk"/>
      <point x="45" y="1600" type="line" identifier="svlFvrau4c"/>
      <point x="45" y="1598" type="line"/>
      <point x="201" y="1598" type="line"/>
      <point x="201" y="1478" type="line"/>
      <point x="42" y="238" type="line" identifier="teVKnpBcVb"/>
    </contour>
  </outline>
</glyph>
<glyph name="five.wide" format="2">
  <advance width="207.7887887887888"/>
  <outline>
    <contour>
      <point x="30.084084084084083" y="0.0" type="line" identifier="09VlJ0BjUX"/>
      <point x="186.55255255255256" y="0.0" type="line" identifier="EagWihqFM8"/>
      <point x="186.55255255255256" y="788.0680680680681" type="line" identifier="KfNuQA7eZe"/>
      <point x="30.084084084084083" y="815.1111111111111" type="line" identifier="At364YZFEy"/>
      <point x="30.084084084084083" y="1598.0" type="line" identifier="BcuLfvaQKC"/>
      <point x="186.55255255255256" y="1598.0" type="line" identifier="3ZUkG35meB"/>
      <point x="186.55255255255256" y="1600.0" type="line" identifier="SaF9ojRFrW"/>
      <point x="28.103103103103102" y="1600.0" type="line" identifier="F4sQEYelA8"/>
      <point x="28.103103103103102" y="813.1111111111111" type="line" identifier="3sQ8t8BZ6b"/>
      <point x="184.57157157157158" y="786.0680680680681" type="line" identifier="yiV6OCBLHg"/>
      <point x="184.57157157157158" y="2.0" type="line" identifier="9kdl9SYsn8"/>
      <point x="30.084084084084083" y="2.0" type="line" identifier="yZDWuX8LLe"/>
    </contour>
  </outline>
</glyph>
<glyph name="six.wide" format="2">
  <advance width="230"/>
  <outline>
    <contour>
      <point x="32" y="0" type="line" identifier="uiw6aBUf4P"/>
      <point x="196" y="0" type="line" identifier="jtYkxiUX6G"/>
      <point x="196" y="801" type="line" identifier="2G5L37c87I"/>
      <point x="34" y="801" type="line"/>
      <point x="34" y="1435" type="line"/>
      <point x="80" y="1598" type="line"/>
      <point x="196" y="1598" type="line"/>
      <point x="196" y="1600" type="line" identifier="oGvEEuxnYv"/>
      <point x="78" y="1600" type="line" identifier="xR3pEHbMJx"/>
      <point x="32" y="1436" type="line" identifier="KnMArb0tv8"/>
    </contour>
    <contour>
      <point x="194" y="799" type="line"/>
      <point x="194" y="2" type="line"/>
      <point x="34" y="2" type="line"/>
      <point x="34" y="799" type="line"/>
    </contour>
  </outline>
</glyph>
<glyph name="three.wide" format="2">
  <advance width="229"/>
  <outline>
    <contour>
      <point x="28" y="0" type="line" identifier="O9abUc1nmN"/>
      <point x="192" y="0" type="line" identifier="kMJYMTfXCq"/>
      <point x="192" y="810" type="line" identifier="su2XmdS8e8"/>
      <point x="139" y="810" type="line" identifier="JQaOzDQqlF"/>
      <point x="139" y="813" type="line"/>
      <point x="184" y="903" type="line" identifier="S91TzLL02W"/>
      <point x="184" y="1600" type="line" identifier="xg8x2Ki40p"/>
      <point x="30" y="1600" type="line" identifier="pE1XSRiy68"/>
      <point x="30" y="1598" type="line" identifier="7ogBYufWpl"/>
      <point x="182" y="1598" type="line" identifier="RHLvSX2Jv6"/>
      <point x="182" y="903" type="line" identifier="YUjTrmoWd9"/>
      <point x="137" y="813" type="line"/>
      <point x="137" y="810" type="line" identifier="iic1IBkDqp"/>
      <point x="53" y="810" type="line" identifier="lRLJEhXMlO"/>
      <point x="53" y="808" type="line" identifier="8aKgEELrVU"/>
      <point x="190" y="808" type="line" identifier="Dm8zjmbhNr"/>
      <point x="190" y="2" type="line" identifier="xv9CFHiFgB"/>
      <point x="28" y="2" type="line" identifier="YajKQV3MHP"/>
    </contour>
  </outline>
</glyph>
